<svg xmlns="http://www.w3.org/2000/svg" width="4000" height="4000" viewBox="0 0 4000 4000">
<path fill="white" fill-opacity="1" d="M 1353.191406 2578.839844 C 1371.179688 2594.179688 1387.949219 2611.238281 1403.050781 2629.550781 C 1547.449219 2804.691406 1524.5 3067.089844 1351.878906 3214.480469 C 1269.121094 3285.148438 1164.53125 3318.910156 1057.390625 3309.53125 C 950.238281 3300.160156 853.101562 3248.75 783.863281 3164.78125 C 639.453125 2989.640625 662.40625 2727.238281 835.03125 2579.839844 L 859.136719 2559.261719 L 978.652344 2694.878906 L 1095.011719 2198.339844 L 566.203125 2226.851562 L 668.105469 2342.480469 L 647.433594 2360.128906 C 505.980469 2480.910156 419.089844 2650.171875 402.769531 2836.730469 C 386.453125 3023.289062 442.628906 3205.058594 560.960938 3348.570312 C 679.886719 3492.808594 847.246094 3581.148438 1032.199219 3597.339844 C 1217.160156 3613.519531 1397.308594 3555.578125 1539.480469 3434.191406 C 1680.929688 3313.410156 1767.820312 3144.160156 1784.140625 2957.601562 C 1785.988281 2936.421875 1786.910156 2915.328125 1786.910156 2894.320312 C 1786.898438 2730.289062 1730.851562 2572.980469 1625.949219 2445.761719 C 1600.160156 2414.480469 1571.46875 2385.300781 1540.679688 2359.03125 L 1430.78125 2265.289062 L 1243.289062 2485.089844 L 1353.191406 2578.839844 "/>
</svg>
